<?xml version="1.0" encoding="UTF-8"?>
<svg id="Calque_1" data-name="Calque 1" xmlns="http://www.w3.org/2000/svg" viewBox="0 0 300 300">
  <defs>
    <style>
      .cls-1 {
        fill: #fff;
      }

      .cls-2 {
        fill: none;
        stroke: #fff;
        stroke-linecap: round;
        stroke-miterlimit: 10;
        stroke-width: 18px;
      }
    </style>
  </defs>
  <g>
    <path class="cls-1" d="M116.89,281H31.54c-6.93,0-12.54-5.62-12.54-12.54V31.54c0-6.93,5.62-12.54,12.54-12.54h85.35c4.97,0,9-4.03,9-9h0c0-4.97-4.03-9-9-9H31.54C14.67,1,1,14.67,1,31.54v236.92c0,16.87,13.67,30.54,30.54,30.54h85.35c4.97,0,9-4.03,9-9h0c0-4.97-4.03-9-9-9Z"/>
    <path class="cls-1" d="M268.46,1h-13.77c-4.97,0-9,4.03-9,9h0c0,4.97,4.03,9,9,9h13.77c6.93,0,12.54,5.62,12.54,12.54v236.92c0,6.93-5.62,12.54-12.54,12.54h-13.77c-4.97,0-9,4.03-9,9h0c0,4.97,4.03,9,9,9h13.77c16.87,0,30.54-13.67,30.54-30.54V31.54c0-16.87-13.67-30.54-30.54-30.54Z"/>
  </g>
  <path class="cls-1" d="M91.27,164.04c-3.7,0-5.23,2.83-5.23,4.79v62.5c0,4.79-3.7,8.49-8.49,8.49h-14.37c-4.79,0-8.49-3.7-8.49-8.49V68.67c0-4.79,3.7-8.49,8.49-8.49h14.37c4.79,0,8.49,3.7,8.49,8.49v62.28c0,1.96,1.52,4.79,5.23,4.79h10.45c3.7,0,5.23-2.83,5.23-4.79v-62.28c0-4.79,3.7-8.49,8.49-8.49h14.37c4.79,0,8.49,3.7,8.49,8.49v162.66c0,4.79-3.7,8.49-8.49,8.49h-14.37c-4.79,0-8.49-3.7-8.49-8.49v-62.5c0-1.96-1.52-4.79-5.23-4.79h-10.45Z"/>
  <g>
    <path class="cls-2" d="M222.67,278.11h-9.87c-14.37,0-26.01-11.65-26.01-26.01V47.76c0-14.37,11.65-26.01,26.01-26.01h9.87"/>
    <path class="cls-2" d="M186.79,47.76c0-14.37-11.65-26.01-26.01-26.01h-9.87"/>
    <path class="cls-2" d="M186.79,252.1c0,14.37-11.65,26.01-26.01,26.01h-9.87"/>
  </g>
</svg>